<?xml version="1.0" encoding="UTF-8"?>
<svg width="173px" height="141px" viewBox="0 0 173 141" version="1.1" xmlns="http://www.w3.org/2000/svg" xmlns:xlink="http://www.w3.org/1999/xlink">
    <title>Group 5</title>
    <g id="idea1" stroke="none" stroke-width="1" fill="none" fill-rule="evenodd">
        <g id="detskaduse_landingpage" transform="translate(-604.000000, -933.000000)">
            <g id="Group-5" transform="translate(604.000000, 933.000000)">
                <g id="11" transform="translate(0.000000, 38.000000)" fill="#71CFE8">
                    <path d="M131.831538,84.5415608 C131.359951,84.48393 130.971072,84.4278568 130.738867,84.7988745 C130.663963,84.9181858 130.80316,85.1449707 130.981371,85.1807952 C131.424869,85.2705123 131.615563,84.9649134 131.831538,84.5415608 M30.2272035,63.1608508 C30.0315153,62.7646002 29.5914508,62.8948147 29.5867693,62.4892185 C29.5855209,62.3808103 28.8286724,62.9795475 28.9713032,63.1072698 C29.3264758,63.426887 29.7222217,63.0290788 30.2272035,63.1608508 M54.2428643,74.4879481 C55.0121969,74.1686424 55.9082431,74.5923066 56.8133403,73.9829778 C55.7977588,73.9745668 54.9981523,74.1175535 54.2428643,74.4879481 M66.0600001,74.258671 C66.8068613,74.1941869 67.5927353,74.1692654 68.2993353,73.355581 C67.3221425,73.4487249 66.677963,73.7926405 66.0600001,74.258671 M51.9420449,75.6433675 C53.0166137,75.6265455 54.0980488,75.7090977 55.097713,75.0331042 C53.9763288,75.1340359 52.9039447,75.1169025 51.9420449,75.6433675 M81.3018363,90.525817 C79.9026809,90.5753483 78.4620159,90.2566656 77.1421346,91.0030622 C78.5119523,90.6968402 79.9348275,90.8588294 81.3018363,90.525817 M133.260655,86.0539795 L133.129884,85.8574118 C131.581856,86.7106589 130.03414,87.5642176 128.486112,88.4177763 C128.520131,88.4778992 128.553526,88.5380221 128.587233,88.5981451 C130.281949,87.9987849 131.746958,86.9823024 133.260655,86.0539795 M8.00207461,83.5029606 C9.08600649,84.9016753 9.64966355,84.9926385 10.5288562,83.7179078 C9.51982892,84.3054303 8.93401259,82.9257182 8.00207461,83.5029606 M72.5754513,90.9401356 C70.667881,90.6354712 68.9172982,91.3447972 67.1161549,91.7519509 C68.9943875,91.8902647 70.7721232,91.3644228 72.5754513,90.9401356 M6.77551191,64.9411748 C9.19056082,63.4119341 11.6471194,61.9530965 14.1807672,60.6244732 C11.4742146,61.6521703 9.00485985,63.0898248 6.77551191,64.9411748 M69.4175985,60.3599946 C67.1295753,60.8113839 64.8902401,61.4428304 62.6814909,62.182062 C65.0519091,62.0297298 67.3649005,61.6717959 69.4175985,60.3599946 M3.69942998,77.4697961 C3.54369084,77.9971957 3.68070383,78.3161899 3.79555754,78.6317574 C4.40509366,80.3086575 5.62915954,81.5273149 6.87600891,82.7279044 C7.45433478,83.2848981 7.54141137,83.290817 8.38783327,82.843789 C6.34168948,82.3948919 5.39414638,81.247572 6.1166636,80.0787573 C5.71873295,79.862564 4.91319648,79.6167765 5.08204391,79.3236383 C5.5224205,78.5594852 4.82331097,78.6158699 4.57737422,78.4158755 C4.27557113,78.1710226 3.89948766,78.019625 3.69942998,77.4697961 M143.191444,73.6543266 C139.472431,77.4342831 135.621398,81.0862058 132.140832,85.0945048 C136.987471,82.4079756 140.510796,78.4389279 143.191444,73.6543266 M61.6353234,97.5524116 C62.8746823,97.9078533 64.0016843,97.9374475 65.112457,97.9704684 C74.1568745,98.2389967 83.113279,97.0680014 92.098397,96.3633483 C91.4358035,96.226592 62.7042744,97.4078673 61.6353234,97.5524116 M57.0130858,58.5086446 C56.2840145,58.3915139 55.5621215,58.2192446 54.8639482,58.6787333 C54.6514065,58.8182932 54.3564696,58.6809139 54.1326922,58.5625372 C53.7250863,58.3469669 53.2506906,58.4774928 53.0431424,58.700851 C52.6926514,59.0784106 52.3346698,58.9575417 51.9629558,58.9656411 C51.7123375,58.9712485 51.4738912,58.8706282 51.2086041,58.9329318 C49.310709,59.3805828 47.3488329,59.2662558 45.4347084,59.5724777 C44.6503949,59.6977079 43.828317,59.4394597 43.0642902,59.8892913 C42.8192898,60.033524 42.6054996,60.4696489 42.3033844,60.286788 C42.0062628,60.1073537 42.5989454,59.7640612 42.280913,59.427622 C41.6841731,60.207974 40.8805092,60.7185516 39.9095584,60.7014181 C39.1002767,60.6867768 38.1371285,61.304828 37.5098026,60.1774452 C37.8824529,60.8434702 37.7535546,61.1437733 37.1146808,61.2948594 C36.3678196,61.4718015 35.5969265,61.507003 34.8578679,61.6665001 C34.2692426,61.7935994 33.6877957,62.1527793 33.0888711,62.0518476 C32.2552454,61.9110416 31.5860977,62.8783042 30.7081534,62.3231796 C30.584873,62.2453001 30.2949298,62.4437369 30.4512931,62.7723882 C30.6419877,63.1739346 31.3841674,63.3493191 31.7736713,63.0219139 C32.293634,62.5848545 33.0445525,62.9655292 33.5432923,62.4913992 C33.9618217,63.2362381 34.3297905,62.6231712 34.7189823,62.453394 C34.8079315,62.4144543 34.904059,62.3266063 35.0192248,62.4431139 C35.4068561,62.8353148 36.0204496,62.6966894 36.4892275,63.2203507 C36.4870428,62.7555662 36.055405,62.3586926 36.4221254,62.2387583 C36.8955849,62.0839339 36.7457757,62.8044745 37.1583752,62.9764323 C37.2510696,62.4652317 37.5840829,62.3069806 38.0790775,62.3857946 C39.6102522,62.6294015 40.998484,61.9820676 42.417926,61.6129191 C43.2453096,61.3979718 44.0985978,61.2805296 44.9147457,61.2048308 C46.3629012,61.0708782 47.7739165,60.7138788 49.1830591,60.4646646 C50.8499984,60.1699688 52.5306702,59.7952129 54.1841891,59.3796482 C55.1286111,59.1419602 56.1900716,59.1896224 56.9971686,58.4911996 C58.25619,58.4865268 58.7708469,58.1718939 58.7640484,57.3887382 C58.2178014,57.8354547 57.381991,57.8011878 57.0130858,58.5086446 M134.157638,89.2492172 C133.142681,90.1778516 131.909876,90.7230077 130.639307,91.17502 C129.664299,91.5223623 128.629679,91.7089614 127.832569,92.4562925 C127.679951,92.5995907 127.432766,92.8170301 127.168415,92.5802766 C126.992701,92.4232716 126.807313,92.4802794 126.772981,92.6506796 C126.658752,93.2142152 126.333853,93.16593 125.919693,93.0248124 C125.621947,92.9235692 125.443113,92.9709199 125.709648,93.3114088 C125.48431,93.421063 125.267399,93.552835 125.03301,93.6363218 C121.220678,94.9957853 117.384627,96.2832882 113.431849,97.1817054 C111.347005,97.6552124 109.442868,98.6271478 107.418259,99.2766624 C103.684889,100.474448 99.8691243,100.980041 95.9743976,101.220845 C93.6192723,101.366324 91.2507267,101.300593 88.9205697,101.501834 C84.1444656,101.914283 79.3549411,102.078142 74.5835185,102.489968 C71.5692329,102.750085 68.5540109,102.871266 65.5353559,102.982789 C62.7785548,103.084655 60.0754353,102.722049 57.3635769,102.219882 C53.002257,101.411494 48.6125358,100.75388 44.2221904,100.108415 C36.5688136,98.9829011 29.0995773,97.1178443 21.8853287,94.3017237 C17.3848111,92.5447636 13.071555,90.4136706 9.08819121,87.6648378 C6.29861934,85.7396581 3.77464667,83.5228977 1.91919749,80.6482118 C-0.841348847,76.3713845 -0.608832507,71.9690155 2.51968264,67.8644575 C4.91319648,64.7237354 8.1269156,62.629713 11.5453739,60.8169912 C17.7509073,57.5264291 24.4529958,56.1679001 31.4116324,55.8264767 C36.1699467,55.5928384 40.9310698,55.6143331 45.692193,55.5953305 C47.5982028,55.5878541 49.404964,55.0140384 51.2501138,54.6233951 C54.6292472,53.9078388 57.9781067,53.078267 61.3194757,52.2153628 C62.6858603,51.8627247 64.037264,51.438126 65.2756866,50.737211 C65.9414012,50.3602745 66.7737785,50.3696201 67.3433655,49.7353699 C67.6208246,49.4263443 68.0381056,49.6129434 68.4113801,49.8176106 C68.8180496,50.0403458 69.3311461,50.1976623 69.3511206,49.4238521 C69.3717194,48.604872 69.7805736,48.0522394 70.665072,47.8902502 C71.0658116,47.816732 71.383844,47.7326222 71.5592456,47.3444711 C71.5814049,47.2949398 71.6353986,47.2170603 71.6672331,47.220487 C72.5283238,47.3123848 72.8157702,46.5220642 73.3797393,46.1600806 C74.7055506,45.309014 75.9857949,44.3903482 77.3240903,43.5613994 C78.2192002,43.0065863 79.0316029,42.3305927 79.8970631,41.7390205 C80.2946816,41.4670655 80.7796889,41.187011 81.1267468,40.827208 C81.5281106,40.4110203 81.9825318,40.0661701 82.3938828,39.6699195 C83.3520374,38.7459579 84.5698612,38.1789955 85.5570414,37.2783977 C86.7514575,36.1887086 87.7142936,34.9055669 88.8144548,33.7404905 C91.748218,30.6337239 94.5324842,27.3746251 97.8747895,24.6821771 C100.809801,22.3177573 104.234502,21.1972279 107.972241,20.9243383 C109.87825,20.7850899 111.66098,20.0975702 113.490837,19.6100449 C115.341604,19.1172238 117.05255,18.3131965 118.723859,17.4390776 C119.749115,16.902644 120.429811,15.8979993 121.192277,15.0207652 C123.397905,12.4840761 125.38631,9.69100788 128.171825,7.76458205 C130.52258,6.13908238 132.822151,4.41109336 135.432576,3.15256161 C138.144747,1.84543309 140.924956,0.78845333 143.901165,0.361985516 C148.635759,-0.316188649 153.279532,-0.12398219 157.833731,1.64886538 C159.930123,2.46504192 161.855171,3.50239606 163.623232,4.81731252 C165.911255,6.51882253 167.757653,8.66580294 169.329089,11.0498484 C171.926094,14.9914826 172.776573,19.401951 172.958841,24.0202018 C173.048414,26.2759019 173.021886,28.5206989 172.570586,30.7293598 C172.389254,31.6171854 172.085578,32.5389665 171.961049,33.3943943 C171.625227,35.7011833 170.62962,37.7229335 169.667408,39.75621 C168.652139,41.9031904 167.449608,43.9623228 166.268925,46.0304892 C165.397534,47.5566147 164.220284,48.8783845 163.484034,50.4886198 C163.219996,51.0655507 162.676001,51.5160054 162.252478,52.0181721 C161.757795,52.6044485 161.598311,53.367044 161.146075,53.9916371 C159.576511,56.1601122 158.097146,58.393383 156.535385,60.567777 C153.797934,64.3785737 151.581382,68.5061841 149.176633,72.5197789 C148.132338,74.2630323 147.097406,76.0122045 146.054048,77.7560809 C145.463238,78.7432807 144.744466,79.651355 144.068764,80.5728245 C143.673954,81.1114387 143.063794,81.5964719 142.594392,82.1126568 C141.926492,82.8475272 140.947739,83.308885 140.587885,84.3384512 C140.398127,84.8814267 139.992393,85.2661511 139.409698,85.4705067 C138.707156,85.7169173 138.375391,86.5047457 137.651001,86.7414992 C136.486546,87.5773014 135.322404,88.4131035 134.157638,89.2492172" id="Fill-517"></path>
                </g>
                <g id="1" transform="translate(18.000000, 0.000000)" fill="#000000">
                    <path d="M62.0249757,35.9667528 C60.9797205,35.9899076 59.9483888,35.7484362 58.8978294,35.8338383 C58.7320737,35.8470696 58.4360341,35.7968507 58.4042091,35.7126515 C58.0915939,34.8775753 57.0473332,34.9777123 56.4618842,34.4373335 C55.943069,33.9589013 55.8973204,33.5803054 56.146617,33.0973625 C57.1126409,31.2269362 57.9619729,29.3144103 58.7506384,27.3784288 C58.9581645,26.8690233 59.1620439,26.3554079 59.3142076,25.8306661 C59.4600726,25.3278762 59.9357914,25.1669955 60.351175,25.0280667 C60.8020304,24.8774102 60.8554038,25.3723816 61.0950864,25.5840825 C62.2192413,26.577333 62.2523925,27.9224161 62.5805887,29.1742786 C63.0042601,30.7884986 63.3858297,32.4132435 63.8668526,34.0136308 C64.2669868,35.3463847 63.7969037,36.1802581 62.0249757,35.9667528" id="Fill-566"></path>
                    <path d="M50.9985421,8.42565006 C51.0297074,9.09972458 50.5596573,9.56948041 49.7374711,9.65805788 C48.5927079,9.78118056 47.4482659,9.92408553 46.2993258,9.99612854 C45.2499862,10.0619711 44.6996131,9.27451745 44.1762285,8.65890406 C43.8160602,8.23491325 44.0615273,7.62697657 44.4326195,7.12060872 C45.6740916,5.42582653 46.5961996,3.57573852 47.4402336,1.69199106 C47.5873853,1.36366392 47.7416054,1.0613195 48.2036233,1.00669673 C48.7035536,0.94734983 48.8037967,1.2945735 49.0351269,1.56886839 C49.7259046,2.38820995 49.8749841,3.37614396 50.1406926,4.32982801 C50.5162829,5.67915809 50.8719531,7.03232651 50.9985421,8.42565006" id="Fill-568"></path>
                    <path d="M48.9693462,24.3625317 C48.9684541,25.2518377 49.2015813,25.949103 48.3957462,26.350755 C48.2045462,26.4460047 48.0353506,26.5751622 47.8352299,26.5390968 C46.9345382,26.3763399 46.0552562,26.4284344 45.2327691,26.8513557 C44.5895878,27.182418 44.2280027,26.9237948 43.7504488,26.4367572 C42.8336999,25.5012134 42.8113982,25.1248381 43.3888638,23.9667365 C44.3118572,22.1159934 45.3576587,20.3154954 45.9312586,18.2924396 C46.0145184,17.9986758 46.1064014,17.7002881 46.2452667,17.4324174 C46.5328101,16.8781809 47.053778,16.8680086 47.4513432,17.3371677 C48.2892927,18.3263473 48.3844467,19.5707593 48.5622657,20.7747904 C48.7498974,22.0450955 48.8548641,23.3283473 48.9693462,24.3625317" id="Fill-570"></path>
                    <path d="M49.5498642,57.3151433 C48.6011652,57.2051294 47.8402231,56.6753506 47.175638,56.0368261 C46.9352101,55.8057017 46.9609259,55.3348929 47.1362896,54.9721958 C47.7252762,53.7541167 47.9551699,52.4019285 48.5695625,51.1714848 C48.8595633,50.590345 48.9810166,49.7812514 49.1941795,49.0828057 C49.3438274,48.5910721 49.5845652,48.0479775 50.162088,48.0026404 C50.737442,47.9576203 51.0413851,48.4975444 51.2846016,48.9173093 C51.9058104,49.9914509 52.1137062,51.2266502 52.3594013,52.4266579 C52.6280238,53.7392157 52.8002892,55.0739666 52.9892854,56.4030107 C53.0645741,56.9340576 52.7166351,57.2698061 52.7674472,57.7510774 C52.7944024,58.0075651 52.476517,58.0446591 52.1747427,57.9577894 C51.3093879,57.7092277 50.426063,57.5250257 49.5498642,57.3151433" id="Fill-572"></path>
                    <path d="M36,15.9204996 C36.0020986,16.7425023 35.5778035,17.1261441 34.6864829,16.9632027 C33.9570564,16.8297489 33.231241,16.9045317 32.5195687,16.9096996 C31.6402848,16.9163875 31.0616186,16.5257538 30.4648972,15.9989303 C29.9148181,15.5131462 29.8874345,14.9498433 30.2021953,14.3737726 C31.2069622,12.5367303 32.031178,10.6261213 32.6766482,8.63100155 C32.9282161,7.85399012 33.449106,7.80687088 33.991963,8.42185293 C34.3638983,8.84288612 34.6365304,9.31529448 34.8038411,9.83938199 C35.4420893,11.8354137 35.8001823,13.8901164 36,15.9204996" id="Fill-574"></path>
                    <path d="M21.4108857,23 C20.7550948,22.9709743 20.191102,22.9904215 19.6211361,22.9013125 C18.2639695,22.6894248 17.8335871,22.3167345 18.055223,21.0825609 C18.3384769,19.5050129 18.5371633,17.9051152 19.0785209,16.3740084 C19.1926399,16.0512424 19.3149326,15.713383 19.522736,15.440251 C19.8880423,14.9604558 20.3473475,14.8164883 20.8751869,15.2939614 C21.3263182,15.702063 21.7324936,16.1357073 22.0075737,16.6660072 C22.7834567,18.1617026 23.3873754,19.7154494 23.9299906,21.2950292 C24.2182745,22.1347433 23.5794599,22.907408 22.6878861,22.9375947 C22.2326678,22.9526881 21.7780783,22.9817138 21.4108857,23" id="Fill-576"></path>
                    <path d="M35.5596337,49.7847614 C34.9546374,49.9059969 34.3835029,50.0795422 33.7462574,49.9595375 C32.8074813,49.7829151 31.7538978,48.4444009 32.051236,47.6105219 C32.7113785,45.7593721 33.1090119,43.8417581 33.7082033,41.9767616 C33.8446177,41.5515141 33.940398,41.0758031 34.5305596,41.007185 C35.1239461,40.9382592 35.3629131,41.3782765 35.566406,41.768138 C36.5874178,43.7226765 37.2588475,45.8049124 37.9305997,47.8825326 C38.1289327,48.4964029 37.9025429,48.9822682 37.2465928,49.3352052 C36.6967428,49.6312169 36.0524025,49.4247472 35.5596337,49.7847614" id="Fill-578"></path>
                    <path d="M22.9927198,6.3139923 C23.0792498,7.92019532 22.3960417,8.64651294 20.8568569,8.95914398 C20.0501178,9.1230921 19.4752907,8.75886472 18.8538482,8.48256483 C18.1292688,8.16016407 17.858025,7.58497181 18.0701255,6.67699845 C18.3431173,5.50921161 18.8261702,4.43759545 19.2288114,3.33025875 C19.5580332,2.42472783 19.8776406,1.51889161 20.1622863,0.596874283 C20.3886627,-0.135854715 20.6744739,-0.109903897 21.2527971,0.225930228 C22.2532818,0.806617959 22.4540197,1.77504145 22.6037719,2.77674305 C22.7788713,3.94819354 22.866858,5.13429861 22.9927198,6.3139923" id="Fill-580"></path>
                    <path d="M15.0000966,42.4147859 C14.9951163,41.8233321 15.1831956,41.2784612 15.4623849,40.7822772 C16.1692935,39.5257383 16.6746467,38.1787383 17.2022647,36.8413555 C17.6302769,35.7555208 17.7240236,35.8405723 18.6122734,36.4215074 C19.53685,37.0261848 19.7688731,37.9238843 20.072085,38.8251902 C20.4013702,39.8034331 20.6831962,40.8024131 20.9178558,41.8089064 C21.1320084,42.7258401 20.9509601,42.9142758 20.0949357,43.216314 C19.304534,43.4949104 18.5771184,43.9382002 17.706739,43.9965041 C17.2910311,44.0241534 17.1032448,43.889814 16.9787375,43.5213575 C16.8662414,43.1886647 16.6207423,43.2121065 16.3573727,43.3245068 C15.6437261,43.6283481 14.9986318,43.194976 15.0000966,42.4147859" id="Fill-582"></path>
                    <path d="M20.8553693,59.9991248 C19.7735831,59.8913614 18.8345034,59.8435654 17.9141923,59.6960215 C16.4007271,59.4534795 15.757739,58.4263125 16.0819836,57.0280592 C16.4052575,55.6345558 16.7091155,54.2419431 17.3093887,52.9193914 C17.7973736,51.8450222 18.3698175,51.7054938 19.2169955,52.5364303 C19.5894562,52.9018761 19.9049637,53.3525233 20.1133604,53.8150453 C20.8275399,55.4015136 21.5821691,56.9784821 21.9494522,58.67687 C22.1487882,59.597461 21.7533522,60.0219837 20.8553693,59.9991248" id="Fill-584"></path>
                    <path d="M7.8538832,19.6967036 C7.6103448,19.4697447 7.96736773,18.8749128 7.41745237,18.723399 C7.2251852,18.6704004 7.1045102,18.9890158 7.17516448,19.1741993 C7.30678151,19.5177552 7.18579388,20.02436 7.659115,20.1590389 C7.89046086,20.2248196 7.85419583,19.9570205 7.8538832,19.6967036 M9.9982092,21.2046711 C10.0266585,22.4775739 9.72246995,22.6995448 8.63108023,22.6786571 C8.01019797,22.6671221 7.3849389,22.871011 6.76186823,22.9785671 C5.78959037,23.146604 4.31616736,22.296755 4.0573101,21.4727819 C3.97227487,21.2003065 3.98102849,20.9964176 4.08919831,20.7520003 C4.84294813,19.0423262 5.57950332,17.3251699 6.33981835,15.6186134 C6.67214355,14.8738265 7.05605263,14.814281 7.67693489,15.3713903 C9.07282577,16.625276 9.36294598,18.3916898 9.83845551,20.0658236 C9.96069366,20.496048 9.96600836,20.9596303 9.9982092,21.2046711" id="Fill-586"></path>
                    <path d="M0,35.9054594 C0.216336445,34.0565272 0.907858807,32.3157145 1.64566551,30.5943457 C1.96108473,29.8590151 2.38004375,29.845758 3.1116792,30.3365676 C3.76445986,30.7746431 4.12513488,31.3656179 4.24615987,32.0314221 C4.53346564,33.6116758 4.76831582,35.1995892 4.98876643,36.7883864 C5.08167796,37.4586096 4.59037824,37.8015282 3.80663004,37.9402865 C2.55660994,38.1615338 1.56132515,37.7361262 0.589353961,37.1878689 C0.055198364,36.8864894 0.0647980795,36.379182 0,35.9054594" id="Fill-588"></path>
                    <path d="M32.3866942,35.7065212 C32.1031956,35.6809902 31.7768559,35.5429338 31.6540832,35.6605024 C31.2222223,36.0743565 30.6966285,35.7903637 30.221639,35.9797973 C29.7147343,36.182154 28.9424451,34.8138823 29.0034001,34.1308497 C29.0939702,33.1184358 29.8921366,32.4779548 30.0212348,31.4617585 C30.1488955,30.4584853 30.5149134,29.4905143 30.7915114,28.5121417 C30.8720181,28.2265729 31.044245,28.0191731 31.3530457,28.001522 C31.6831231,27.982295 31.8576502,28.1455672 32.0083127,28.4724269 C32.8415571,30.2848116 33.284919,32.2538495 33.9209219,34.1447184 C34.2722761,35.1889672 33.3976283,35.5568025 32.3866942,35.7065212" id="Fill-590"></path>
                    <path d="M48.9690846,39.3559929 C49.2025508,40.3960887 48.0613311,40.9618144 47.3071738,40.7701528 C46.9560529,40.680649 46.6715927,40.5633682 46.2464384,40.7652147 C45.7242114,41.0133562 44.9334981,41.3161259 44.7983335,40.2096739 C44.7875817,40.1220219 44.561181,40.0766527 44.4647225,39.9815935 C43.8669261,39.3911772 43.8478802,38.5439775 44.3959114,37.872699 C44.5184812,37.722703 44.6428941,37.5560408 44.703411,37.3757987 C45.1171992,36.1458931 46.0264887,35.1122787 46.1171104,33.7527469 C46.1404571,33.4005958 46.2707066,33.0725181 46.6706711,33.0089396 C47.0721716,32.9450524 47.2666244,33.2339336 47.4300507,33.5456537 C47.5077704,33.6941065 47.63802,33.8234241 47.6828701,33.9792841 C48.1955742,35.7514592 48.653598,37.5372141 48.9690846,39.3559929" id="Fill-592"></path>
                </g>
            </g>
        </g>
    </g>
</svg>