<?xml version="1.0" encoding="UTF-8"?>
<svg width="119px" height="119px" viewBox="0 0 119 119" version="1.1" xmlns="http://www.w3.org/2000/svg" xmlns:xlink="http://www.w3.org/1999/xlink">
    <title>Group</title>
    <g id="idea1" stroke="none" stroke-width="1" fill="none" fill-rule="evenodd">
        <g id="detskaduse_landingpage" transform="translate(-495.000000, -2142.000000)">
            <g id="Group" transform="translate(495.000000, 2142.000000)">
                <circle id="Oval" fill="#FED4D5" cx="59.5" cy="59.5" r="59.5"></circle>
                <g id="shape-star" transform="translate(31.000000, 33.000000)" fill="#FE6B6F">
                    <path d="M52.7709824,17.9823401 L36.6263024,15.6559053 L29.4146624,1.15920965 C28.9880668,0.44093377 28.2101402,0 27.3695024,0 C26.5288646,0 25.7509379,0.44093377 25.3243424,1.15920965 L18.0990224,15.6559053 L1.95434238,17.9823401 C1.0954776,18.10527 0.381444865,18.700993 0.112410119,19.5190784 C-0.156624627,20.3371637 0.0659866604,21.2357633 0.686662378,21.8371227 L12.3716624,33.1279053 L9.61514238,49.0738183 C9.46858703,49.921983 9.82030188,50.7791076 10.5224208,51.2848444 C11.2245397,51.7905812 12.1553101,51.8572316 12.9234224,51.4567749 L27.3626624,43.9303401 L41.8019024,51.4567749 C42.5700146,51.8572316 43.5007851,51.7905812 44.202904,51.2848444 C44.9050229,50.7791076 45.2567377,49.921983 45.1101824,49.0738183 L42.3536624,33.1279053 L54.0386624,21.8371227 C54.6591466,21.2363839 54.8822355,20.3386131 54.6142535,19.5207869 C54.3462714,18.7029606 53.6336195,18.1066858 52.7755424,17.9823401 L52.7709824,17.9823401 Z" id="Path"></path>
                </g>
            </g>
        </g>
    </g>
</svg>