<?xml version="1.0" encoding="UTF-8"?>
<svg width="142px" height="83px" viewBox="0 0 142 83" version="1.1" xmlns="http://www.w3.org/2000/svg" xmlns:xlink="http://www.w3.org/1999/xlink">
    <title>Group 35 Copy 4@2x</title>
    <defs>
        <linearGradient x1="31.0997671%" y1="47.7336976%" x2="23.3630674%" y2="59.2833718%" id="linearGradient-1">
            <stop stop-color="#2285FF" offset="0%"></stop>
            <stop stop-color="#4FDCFF" offset="100%"></stop>
        </linearGradient>
        <linearGradient x1="50%" y1="35.8182902%" x2="57.8280902%" y2="61.7784182%" id="linearGradient-2">
            <stop stop-color="#4FDCFF" offset="0%"></stop>
            <stop stop-color="#2285FF" offset="100%"></stop>
        </linearGradient>
        <path d="M1.42087906,32.2325654 C11.2455635,22.6382595 17.9018065,15.6708753 21.389608,11.3304127 C26.6213102,4.81971887 45.2869417,-0.887796619 64.9076168,0.824548771 C84.5282918,2.53689416 88.3971403,4.9482551 97.1101976,11.3304127 C105.823255,17.7125703 103.422275,16.4647469 118.469138,24.3486561 C133.516002,32.2325654 130.106614,40.5554703 128.356219,42.5891181 C126.605823,44.6227658 111.569777,57.5696904 82.5168234,64.5814297 C53.4638696,71.5931689 31.6502764,74.4060308 13.6940575,53.3192981 C6.93162719,45.6883008 2.85926551,43.910833 0.872818318,38.863855 C-0.451479811,35.499203 -0.268792897,33.2887731 1.42087906,32.2325654 Z" id="path-3"></path>
        <linearGradient x1="0%" y1="42.9058238%" x2="92.2886974%" y2="42.9058238%" id="linearGradient-5">
            <stop stop-color="#4FDCFF" offset="0%"></stop>
            <stop stop-color="#2285FF" offset="100%"></stop>
        </linearGradient>
    </defs>
    <g id="idea1" stroke="none" stroke-width="1" fill="none" fill-rule="evenodd">
        <g id="detskaduse_otazky" transform="translate(-66.000000, -889.000000)">
            <g id="Group-4" transform="translate(-155.000000, 759.000000)">
                <g id="Group-35-Copy-4" transform="translate(221.000000, 130.000000)">
                    <g id="Group-34">
                        <g id="Group-32">
                            <path d="M25.3983647,57.0569921 L25.9900801,68.8990293 C26.1584274,74.4913049 30.2106905,77.2892827 38.1468694,77.2929627 C50.0511377,77.2984699 69.2679734,73.7445658 72.1983377,70.8632803 C74.1519138,68.9424234 58.5519228,64.3403273 25.3983647,57.0569921 Z" id="Path-47-Copy" fill="url(#linearGradient-1)" transform="translate(48.879883, 67.174977) rotate(5.000000) translate(-48.879883, -67.174977) "></path>
                            <path d="M25.3983647,2.02412129 L25.9900801,13.8661585 C26.1584274,19.4584341 30.2106905,22.2564119 38.1468694,22.2600919 C50.0511377,22.265599 69.2679734,18.711695 72.1983377,15.8304095 C74.1519138,13.9095525 58.5519228,9.30745645 25.3983647,2.02412129 Z" id="Path-47-Copy" fill="url(#linearGradient-1)" transform="translate(48.879883, 12.142107) scale(1, -1) rotate(5.000000) translate(-48.879883, -12.142107) "></path>
                            <g id="Path-48" transform="translate(11.372761, 5.539045)">
                                <mask id="mask-4" fill="white">
                                    <use xlink:href="#path-3"></use>
                                </mask>
                                <use id="Mask" fill="url(#linearGradient-2)" xlink:href="#path-3"></use>
                                <path d="M2.04293679,27.8427745 C30.7525775,29.9554482 60.164514,21.0760528 90.2787463,1.20458816" id="Path-53" stroke="#2CACFF" stroke-width="3.4299308" mask="url(#mask-4)"></path>
                                <path d="M5.39686121,51.4454903 C64.0115392,43.634598 100.494988,31.4512559 114.847207,14.895464" id="Path-53-Copy" stroke="#2C9CFF" stroke-width="3.4299308" mask="url(#mask-4)"></path>
                                <path d="M25.5204077,68.1009633 C71.962608,62.5402294 107.737802,49.4064958 132.845989,28.6997625" id="Path-53-Copy-2" stroke="#2089EF" stroke-width="3.4299308" mask="url(#mask-4)"></path>
                            </g>
                            <ellipse id="Oval" fill="#1A8DE1" cx="103.971657" cy="23.6027158" rx="3.35392442" ry="3.37181654"></ellipse>
                            <path d="M19.4899628,32.2613921 C13.0610912,15.4291244 8.50646112,6.04394006 5.82607268,4.10583915 C1.80549003,1.19868779 0.00390116257,-1.22752476 0.00390116257,13.6245542 C0.00390116257,23.5259402 0.00390116257,43.8996701 0.00390116257,74.7457439 C-0.0992060117,83.3531498 1.84151783,85.0990187 5.82607268,79.9833504 C11.802905,72.309848 19.4899628,54.7254714 19.4899628,51.948507 C19.4899628,50.0971975 19.4899628,43.5348258 19.4899628,32.2613921 Z" id="Path-46-Copy" fill="url(#linearGradient-5)"></path>
                        </g>
                    </g>
                </g>
            </g>
        </g>
    </g>
</svg>