<?xml version="1.0" encoding="UTF-8"?>
<svg width="1400px" height="253px" viewBox="0 0 1400 253" version="1.1" xmlns="http://www.w3.org/2000/svg" xmlns:xlink="http://www.w3.org/1999/xlink">
    <title>Combined Shape</title>
    <g id="idea1" stroke="none" stroke-width="1" fill="none" fill-rule="evenodd">
        <g id="detskaduse_otazky" transform="translate(0.000000, -759.000000)" fill="#9FBFFF">
            <path d="M172.359691,769.043185 C264.216903,790.205038 239.15816,859.793609 333.095244,869.676302 C427.032328,879.558995 401.52416,836.385703 470.237443,830.747052 C538.950727,825.1084 535.737098,864.744113 642.09421,855.835942 C748.451323,846.927771 766.172812,790.317148 907.003964,793.924716 C1047.83512,797.532285 1110.04167,848.342333 1182.3899,869.676302 C1230.62206,883.898948 1291.59876,870.922531 1365.32002,830.747052 C1377.46759,841.09918 1389.0317,851.329242 1400.01234,861.437239 L1400,1012 L-1.71684889e-12,1012 L-0.00242840992,792.50606 C24.3825191,757.724006 90.7256285,750.236517 172.359691,769.043185 Z" id="Combined-Shape"></path>
        </g>
    </g>
</svg>