<?xml version="1.0" encoding="UTF-8"?>
<svg width="193px" height="104px" viewBox="0 0 193 104" version="1.1" xmlns="http://www.w3.org/2000/svg" xmlns:xlink="http://www.w3.org/1999/xlink">
    <title>Fill 1</title>
    <g id="idea1" stroke="none" stroke-width="1" fill="none" fill-rule="evenodd">
        <g id="detskaduse_landingpage" transform="translate(-223.000000, -970.000000)" fill="#7CFFAF">
            <g id="76" transform="translate(223.000000, 970.000000)">
                <path d="M73.896896,89.7762149 C73.9335267,89.9140396 73.9696623,90.0518642 74.0067881,90.1896889 C74.7671224,89.9611379 75.5274568,89.732587 76.2877912,89.5035403 C76.2610607,89.4038901 76.2343302,89.3037441 76.2075997,89.2040939 C75.4373651,89.3944704 74.6671305,89.5853427 73.896896,89.7762149 M159.702809,2.48561921 C159.708749,2.37605357 159.714194,2.26648794 159.720134,2.15741807 C155.611062,1.95216842 151.501989,1.74642299 147.393906,1.54067756 C147.386976,1.67255295 147.380541,1.80442833 147.374106,1.93630371 C151.483674,2.11924362 155.593241,2.3026793 159.702809,2.48561921 M92.5295434,70.8213598 C110.183062,67.9974418 127.547496,64.065969 144.159515,57.2466236 C127.286131,63.063022 110.057825,67.5180302 92.5295434,70.8213598 M86.7923849,64.8879591 C86.8196104,65.0044656 86.8468359,65.120972 86.8745564,65.2374785 C90.919773,64.4853922 94.9743947,63.7794127 99.008721,62.9713042 C109.661817,60.8370052 120.286203,58.5658732 130.722486,55.5129085 C134.946401,54.2769486 139.13121,52.9041557 143.316514,51.5383035 C145.440104,50.8452141 147.524094,50.0281816 149.626893,49.2701461 C150.435244,48.9791278 151.246564,48.6965377 152.056399,48.4099815 C152.007888,48.2667033 151.959378,48.1234252 151.911362,47.980147 C130.720506,55.5996686 108.915838,60.8563403 86.7923849,64.8879591 M143.625895,64.6123098 C143.547188,64.4883668 143.468482,64.3644238 143.39027,64.2404808 C141.77357,65.1120481 140.19251,66.0589729 138.533734,66.8413013 C134.699391,68.6508695 130.864554,70.4663869 126.962395,72.1197869 C122.326137,74.0845318 117.630973,75.9139309 112.929869,77.7190372 C112.20072,77.9991484 111.363165,78.8295667 110.465713,77.9128841 C110.444427,77.8910701 110.157817,78.1290407 109.995454,78.2460429 C109.478169,78.6183678 109.01286,79.1572721 108.435679,79.3387247 C99.6007522,82.1224851 90.7509748,84.8621218 81.9026824,87.6037415 C80.610708,88.0038296 79.3048733,88.3607855 78.0059687,88.7375723 C78.762343,88.8416845 79.4622862,88.725178 80.135994,88.5214157 C89.5525571,85.6746922 98.9686252,82.8249941 108.375288,79.9455497 C109.305906,79.6604808 109.720724,79.7279058 109.586576,80.8379395 C109.542025,81.2043151 109.79448,81.6063863 109.910807,81.9925928 C110.116236,81.6455523 110.354831,81.313385 110.519669,80.9475052 C110.893401,80.1180784 110.714207,79.1131483 111.973016,78.6550549 C116.740451,76.9213398 121.476206,75.0909492 126.16939,73.1643788 C129.273593,71.8897487 132.289685,70.3984662 135.336963,68.9860114 C137.320961,68.0663541 139.307433,67.1496715 141.25678,66.1615977 C142.093346,65.7372168 142.83883,65.1343579 143.625895,64.6123098 M19.2206368,56.2183922 C19.2755828,56.3155636 19.3310239,56.4122391 19.3854749,56.5089147 C21.1828539,55.3517826 22.9525124,54.1490394 24.782067,53.0459465 C31.2557994,49.1417411 37.9710964,45.6921587 45.0418102,43.0229217 C51.2611078,40.674945 57.4937707,38.2744164 63.8868166,36.4975692 C71.9168585,34.2660989 80.0949082,32.5447781 88.2526625,30.8105673 C91.6771373,30.082278 95.2129892,29.8740538 98.7003301,29.4516559 C100.739274,29.2042656 102.782672,28.9940583 104.825081,28.7788932 C106.88333,28.5622407 108.942569,28.3599657 111.001313,28.1507499 C109.405403,27.9702888 107.816918,27.8161037 106.268528,27.9990436 C101.542179,28.5567872 96.8237496,29.1978206 92.1152206,29.89091 C79.7949325,31.7029571 67.6355225,34.2809721 55.8879603,38.4578521 C48.9276337,40.9327465 42.0811592,43.7546813 35.2802255,46.6485032 C29.5133665,49.1025751 24.1108343,52.2571731 19.2206368,56.2183922 M123.218639,1.22883691 C104.598367,0.961119966 75.1076889,5.2376502 41.2416233,22.4825873 C32.6452907,26.8602551 24.4845663,32.0197555 16.9916096,38.1539438 C49.0018851,15.4193221 84.4534656,2.71119552 123.218639,1.22883691 M172.573052,7.88259442 C172.359208,8.09131448 172.118634,8.50230956 171.933995,8.4785125 C170.123251,8.24649115 168.322902,7.93415472 166.516118,7.66544623 C166.176541,7.61487748 165.82261,7.65602656 165.475608,7.65453925 C165.704798,7.90986188 165.892901,8.22765181 166.169611,8.40960017 C167.767502,9.46113282 169.431723,10.4169815 170.990012,11.5225533 C176.249982,15.2557173 179.480908,20.3076351 180.393705,26.71896 C180.641705,28.4581286 180.431326,30.2632349 180.431326,32.3891057 C184.249333,29.5547765 187.360467,26.6079071 189.149926,22.5827333 C190.021637,20.6219546 190.181525,18.4147772 188.756889,16.5343135 C185.877914,12.7337245 181.524307,11.3718385 177.320687,9.78189738 C175.709432,9.17209768 173.736324,9.45567933 172.573052,7.88259442 M96.8925559,33.2924025 C97.1361005,32.9979138 97.3801402,32.7024336 97.6796208,32.3400242 C97.3301442,32.2939174 97.0509589,32.1793941 96.8217696,32.2428529 C96.3074549,32.384148 95.8183856,32.614682 95.3189212,32.8090247 C95.8604614,32.9557732 96.4020017,33.1030175 96.9435419,33.2497661 C96.6064405,33.5021141 96.2891395,33.926495 95.9272877,33.9696272 C95.2382346,34.0514296 94.4917605,33.7648733 93.8269629,33.9051768 C92.8676348,34.106956 91.9855281,34.6751109 91.0262,34.8754028 C83.6357102,36.4157668 76.2130448,37.8073991 68.8478005,39.458816 C65.9450656,40.1097648 63.1319274,41.2193028 60.3346294,42.2703396 C55.5800645,44.0566066 50.5463143,45.047655 45.9739128,47.3490291 C45.5892905,47.5423803 45.087351,47.4928031 44.6913436,47.6702895 C43.2003753,48.3380945 41.7138622,49.0192854 40.2590297,49.7614562 C38.9160693,50.4461175 37.6483503,51.2844682 36.2875696,51.9274846 C34.9733197,52.5486871 33.5650181,52.9661272 32.2284928,53.5437017 C28.6381899,55.0959642 25.735455,57.6933143 22.7025326,60.0571557 C21.0264309,61.364011 19.6131792,63.0293095 18.1850772,64.6261915 C17.435138,65.4645421 16.8673623,66.4788918 16.2931514,67.4590333 C15.6729047,68.5180025 16.2045447,69.0752504 17.2638648,69.1962188 C20.3819287,69.5521832 23.5039528,70.148597 26.6249868,70.1500993 C41.278254,70.1565294 55.7513378,68.0837062 70.197196,65.9127201 C78.2772338,64.6985742 86.3176709,63.2058044 94.3487028,61.6936994 C107.635249,59.1920333 120.819329,56.2278119 133.806889,52.4346595 C142.947237,49.7649266 151.985118,46.8036798 160.79579,43.1666956 C161.915501,42.704636 161.799669,42.2822382 161.138831,41.5514701 C158.940495,39.1182205 156.0635,37.5753777 153.12463,36.528307 C149.347708,35.1822858 145.311402,34.5709987 141.395878,33.6052347 C141.116197,33.5363223 140.935024,33.1243357 140.671184,32.9195818 C140.356853,32.6751662 140.002921,32.4818151 139.66582,32.26665 C139.532662,32.4287674 139.39901,32.5908849 139.265852,32.7530024 C139.627209,32.8199316 139.989556,32.8863651 140.350913,32.9532943 C140.265276,33.0663304 140.17964,33.1788706 140.094003,33.2919067 C139.39703,33.169451 138.673821,32.8645511 138.008034,32.9587478 C135.915629,33.2552196 133.908861,32.5824568 131.836752,32.5774991 C128.30981,32.5690709 124.783858,32.2577261 121.258402,32.0633834 C120.333229,32.0123189 119.409542,31.8720154 118.485359,31.8660661 C117.656219,31.8606126 116.827078,31.9810852 115.997937,32.0499975 C115.381156,32.1015578 114.763879,32.1516308 114.148087,32.2160812 C113.572391,32.2765654 112.838788,32.6151778 112.45367,32.3777029 C111.313664,31.6746981 110.273154,32.1129606 109.223734,32.3975338 C108.313907,32.6439325 107.474371,33.0400545 106.922436,31.8328494 C106.833829,31.6385067 106.418516,31.5814929 106.143291,31.4994027 C106.108145,31.4892793 105.912122,31.7644328 105.944792,31.8269001 C106.500193,32.8972721 105.558685,32.4049704 105.234454,32.4932178 C104.79835,32.6117074 104.342447,32.6622761 103.893473,32.7297011 C103.125219,32.8447202 102.356469,32.9572605 101.58673,33.0569107 C100.653142,33.1783749 99.5764967,33.0355925 98.8216074,33.4649312 C97.9810815,33.9433512 97.5073576,33.624074 96.8925559,33.2924025 M37.7107215,33.8377518 C36.1420368,34.5432355 34.5154361,35.1460944 33.0120926,35.9725465 C26.1324525,39.7538004 19.8309833,44.3615064 14.2363875,49.8645768 C12.2959508,51.7732995 10.8153778,54.1485437 9.09423023,56.2853215 C7.00182566,58.88168 5.83459358,61.8528423 5.67272552,65.1576592 C5.62520462,66.1219359 5.84696881,67.3613662 6.44048504,68.0420613 C7.79631568,69.59829 9.66398601,70.4941502 11.8563825,71.0469361 C10.3614542,68.3142402 9.73081227,65.5949302 11.2940518,62.9529606 C12.3805974,61.1171165 13.733953,59.3650578 15.265017,57.883195 C19.9304802,53.3681984 25.5364612,50.1952568 31.2414441,47.2201284 C40.1922034,42.552434 49.5864911,38.965027 59.200068,35.9378424 C71.6589586,32.014302 84.3623839,29.2166599 97.3568747,27.83296 C101.85552,27.3540441 106.370005,26.9881643 110.884491,26.6872306 C120.068894,26.0754478 129.223597,26.4824767 138.322365,27.8597317 C143.269488,28.6078518 148.1384,29.6266635 152.843959,31.4927497 C157.6307,33.3920527 161.974902,35.653765 164.315306,40.5594301 C164.599937,41.1563397 164.928623,41.3596063 165.579065,41.0200024 C167.1329,40.2084234 168.74168,39.5009566 170.276704,38.658144 C171.527593,37.9710039 172.968565,37.3770689 173.860077,36.3404094 C175.851994,34.026641 177.104368,31.27461 177.289007,28.1438091 C177.433054,25.6981653 177.034077,23.2465722 175.62033,21.3214891 C173.926408,19.0136699 172.163185,16.5526571 169.463899,15.3181846 C168.159549,14.7222665 167.647214,12.9483939 165.910226,13.1194352 C165.769149,13.1338126 165.592925,12.6791896 165.415217,12.4560921 C164.865262,11.7664731 163.690109,12.0203085 163.313407,11.0649556 C163.234206,11.1031301 163.157479,11.1621269 163.073823,11.1755128 C162.705536,11.2330223 162.287253,11.4154665 161.972922,11.3063966 C158.196,9.99408784 154.4567,8.58212887 150.515435,7.78492731 C146.902857,7.05465499 143.311564,6.62878675 139.593549,6.86527005 C137.282845,7.01201859 134.936501,7.78591886 132.563921,6.92724156 C132.107522,6.76214945 131.403619,7.45573463 130.786342,7.53208354 C126.726275,8.03628377 122.666208,8.58014578 118.590301,8.91429618 C114.620821,9.24051423 110.804794,10.7555938 106.714037,10.2801484 C105.776489,10.1710785 104.521145,10.1641377 103.625673,11.2761545 C103.224716,11.773414 102.089164,11.1160201 101.153597,11.5954318 C100.154668,12.1075644 98.801312,11.925616 97.6023994,12.049559 C97.5618086,12.0535252 97.5261679,12.1011193 97.4845871,12.1115305 C94.8486623,12.7376907 92.3043141,13.7089083 89.7233353,14.4456256 C79.9498705,17.2353353 70.2160063,20.109822 60.7242018,23.7621752 C58.5852664,24.5851569 56.4918718,25.5533998 54.3064054,26.218726 C51.3863452,27.1076454 48.3890635,27.6832368 45.8214499,29.5369287 C44.8616268,30.2300181 43.5770775,30.463031 42.4623164,30.9553327 C42.0306682,31.146205 41.6594112,31.4734146 41.2604337,31.7391484 C40.0773613,32.4386829 38.8942889,33.1382173 37.7107215,33.8377518 M123.908682,69.7257034 C117.18695,71.3453909 110.501353,73.1633872 103.718735,74.4732171 C95.0783466,76.1414903 86.3632118,77.4250443 77.6683723,78.8008119 C75.4650856,79.1498355 73.212793,79.1766072 70.993171,79.4334171 C69.5913045,79.5960304 68.2156735,79.9956227 66.813312,80.1408839 C63.1571728,80.5201496 59.4936085,80.8389311 55.8290542,81.1274704 C55.1904921,81.1780392 54.5296546,80.8845421 53.8831724,80.9023899 C53.4876599,80.9137927 53.1040277,81.3535425 52.7080202,81.365441 C49.2686951,81.4715363 45.826895,81.6083694 42.38757,81.5711865 C37.7107215,81.5206177 33.0155577,81.5513556 28.3649447,81.139369 C21.2709656,80.5107299 14.2334174,79.390285 8.18489803,75.1742389 C4.22383311,72.4137798 0.783518036,69.2497622 0.119215471,64.0109383 C-0.360943611,60.2242309 0.636005246,56.8381074 2.62891294,53.747464 C4.13374141,51.4133689 5.96626607,49.2929516 7.59781693,47.0376843 C8.04976048,46.4135072 8.24528918,45.6078775 8.66753216,44.9564329 C9.32193454,43.9470409 9.9436663,42.8672493 10.7985475,42.0462506 C15.6164736,37.4177222 20.977425,33.4684016 26.6131066,29.9171859 C30.7850455,27.2881064 35.0178706,24.7269477 39.377913,22.4290439 C53.3168817,15.082197 67.7964006,9.07740521 83.1347607,5.29069782 C93.3844246,2.76077273 103.752891,0.839160027 114.28768,0.202092863 C116.543243,0.0654638585 118.804099,0.0123455791 121.067531,0.0019693304 C125.185672,-0.016909453 129.312341,0.105700678 133.431177,0.124256642 C138.59957,0.147557931 143.767468,0.247208125 148.93586,0.305709235 C158.41133,0.413291783 167.769482,1.43012038 176.862309,4.21041039 C181.40996,5.60055539 185.66605,7.59207196 189.060824,11.0991639 C192.964468,15.1312785 194.210407,22.2996474 191.690314,27.3312386 C189.639985,31.4233416 186.696165,34.7881469 182.922708,37.4078068 C180.944156,38.7810955 178.891352,40.0710945 177.051897,41.6134416 C175.483212,42.9282292 174.269945,44.6634316 172.72304,46.0089571 C170.30492,48.1120224 167.698695,49.996948 165.256814,52.0737374 C164.474204,52.7385678 164.00939,53.7638245 163.309447,54.543674 C161.408116,56.6611167 159.669643,58.9976907 157.479722,60.7661098 C154.120093,63.4779833 150.472864,65.8403374 146.878106,68.2458237 C144.957965,69.530865 142.890806,70.5957835 140.889978,71.7593606 C139.437621,71.8441376 138.200592,72.3498252 137.338286,73.5857851 C135.006792,74.6422754 132.677773,75.7052108 130.341329,76.7507942 C129.838399,76.9758748 129.307254,77.1374965 128.794919,77.323411 C126.919329,78.0700438 125.038293,78.8216343 123.157258,79.5727291 C122.536021,79.9911608 121.96676,80.5459297 121.285627,80.8062101 C107.580798,86.0390847 93.6007437,90.3914681 79.3301187,93.7880029 C70.3397587,95.9277553 61.3830593,98.2440026 52.3238929,100.041176 C44.3770126,101.617236 36.3118251,102.599361 28.2916834,103.795659 C27.0101041,103.987027 25.6889241,103.897788 24.3890295,103.986035 C22.8916262,104.087173 21.609057,103.63949 20.5096412,102.625637 C20.3829188,102.508139 20.2264958,102.415429 20.0710629,102.33561 C19.6607001,102.123419 19.2429122,101.924615 18.8280943,101.720852 C19.1904412,101.454623 19.5537781,101.188393 19.9601808,100.889938 C19.8601889,100.806153 19.7804924,100.710469 19.6785204,100.658413 C19.2785529,100.455642 18.8716552,100.266257 18.4672325,100.071419 C18.9275912,99.7932904 19.3730997,99.300493 19.8492987,99.2682678 C35.9103725,98.1711241 51.3685248,93.9605315 66.8732081,90.0612839 C85.0083711,85.5001805 102.903455,80.1170869 120.34511,73.3175724 C124.361121,71.751924 128.332086,70.0563834 132.26147,68.2825108 C135.130544,66.9880498 137.898142,65.4680125 140.599903,63.7665226 C139.188136,64.2444469 137.783794,64.7456725 136.362623,65.1953379 C133.369301,66.1427584 130.362614,67.0495255 127.373252,68.0098361 C126.971305,68.1387369 126.637669,68.4818112 126.273837,68.7257311 C125.847139,68.8392629 125.420441,68.9527947 124.993247,69.0663265 C124.632881,69.2919028 124.300234,69.6315067 123.908682,69.7257034 Z" id="Fill-1"></path>
            </g>
        </g>
    </g>
</svg>